<?xml version="1.0" encoding="iso-8859-1"?>
<!-- Generator: Adobe Illustrator 20.0.0, SVG Export Plug-In . SVG Version: 6.00 Build 0)  -->
<svg version="1.1" id="svgs" xmlns="http://www.w3.org/2000/svg" xmlns:xlink="http://www.w3.org/1999/xlink" x="0px" y="0px"
	 viewBox="0 0 200 200" style="enable-background:new 0 0 200 200;" xml:space="preserve">
<style type="text/css">
	.st0{fill:none;stroke:#46B4DB;stroke-width:2;stroke-linejoin:round;stroke-miterlimit:10;}
	.st1{fill:url(#SVGID_1_);}
	.st2{fill:url(#SVGID_2_);}
</style>
<g id="sequence-close">
	<line class="st0" x1="46.131" y1="96.031" x2="53.969" y2="103.869"/>
	<line class="st0" x1="53.969" y1="96.031" x2="46.131" y2="103.869"/>
</g>
<g id="sequence-open">
	<polyline class="st0" points="91.4,100.9 94.7,104.2 94.7,104.3 98.1,100.9 	"/>
	<line class="st0" x1="88" y1="97" x2="102" y2="97"/>
</g>
<g id="sequence-spinner">
	
		<linearGradient id="SVGID_1_" gradientUnits="userSpaceOnUse" x1="73.1135" y1="256.1342" x2="89.4827" y2="250.1732" gradientTransform="matrix(1 0 0 -1 0 200)">
		<stop  offset="0" style="stop-color:#FFFFFF;stop-opacity:0"/>
		<stop  offset="1" style="stop-color:#FFFFFF"/>
	</linearGradient>
	<path class="st1" d="M91.4-46.7h-2c0-5.6-4.6-10.2-10.2-10.2c-3.8,0-7.2,2.1-9,5.4l-1.8-0.9c2.1-4,6.2-6.4,10.7-6.4
		C85.9-58.9,91.4-53.4,91.4-46.7z"/>
	
		<linearGradient id="SVGID_2_" gradientUnits="userSpaceOnUse" x1="-339.3016" y1="-82.7073" x2="-322.9324" y2="-88.6684" gradientTransform="matrix(-1 0 0 1 -253.9482 45.4453)">
		<stop  offset="0" style="stop-color:#FFFFFF;stop-opacity:0"/>
		<stop  offset="1" style="stop-color:#FFFFFF"/>
	</linearGradient>
	<path class="st2" d="M67.1-46.7h2c0,5.6,4.6,10.2,10.2,10.2c3.8,0,7.2-2.1,9-5.4L90-41c-2.1,4-6.2,6.4-10.7,6.4
		C72.5-34.5,67.1-40,67.1-46.7z"/>
</g>
</svg>
